<!DOCTYPE svg PUBLIC "-//W3C//DTD SVG 1.1//EN" "http://www.w3.org/Graphics/SVG/1.1/DTD/svg11.dtd">
<!-- Uploaded to: SVG Repo, www.svgrepo.com, Transformed by: SVG Repo Mixer Tools -->
<svg fill="#493857" width="800px" height="800px" viewBox="0 0 16 16" id="chart-bars-16px" xmlns="http://www.w3.org/2000/svg" stroke="#493857" stroke-width="0.00016">
<g id="SVGRepo_bgCarrier" stroke-width="0"/>
<g id="SVGRepo_tracerCarrier" stroke-linecap="round" stroke-linejoin="round"/>
<g id="SVGRepo_iconCarrier"> <path id="Path_152" data-name="Path 152" d="M-1.5,15H-2V5.5A.5.5,0,0,0-2.5,5h-3a.5.5,0,0,0-.5.5V8H-8V2.5A.5.5,0,0,0-8.5,2h-3a.5.5,0,0,0-.5.5V11h-2.5a.5.5,0,0,0-.5.5V15h-1V.5a.5.5,0,0,0-.5-.5.5.5,0,0,0-.5.5v15a.5.5,0,0,0,.5.5h15a.5.5,0,0,0,.5-.5A.5.5,0,0,0-1.5,15ZM-14,12h2v3h-2Zm3-.5V3h2V15h-2ZM-8,9h2v6H-8Zm3,6V6h2v9Z" transform="translate(17)"/> </g>
</svg>